<?xml version="1.0" encoding="UTF-8"?>
<svg width="700pt" height="700pt" version="1.1" viewBox="0 0 700 700" xmlns="http://www.w3.org/2000/svg">
 <path d="m289.99-0.035156c-9.6602 0-17.711 6.8438-19.602 15.941l-0.015625 0.12109-19.477 97.387-57.734 115.46c-0.75391 1.1367-1.418 2.4336-1.9258 3.8164l-0.050781 0.14063-3.5703 7.1562h-97.648c-11.043 0-20.004 8.9414-20.004 20.004v280.02c0 11.043 8.9609 20.004 20.004 20.004h116.8c0.96094 0.15625 2.0664 0.26172 3.1836 0.26172 1.1211 0 2.2227-0.085938 3.3086-0.26172l-0.12109 0.015625h316.86c9.3281-0.015625 17.148-6.3867 19.355-15.016l0.035156-0.14062 80.012-320.02c0.38672-1.4531 0.59375-3.1133 0.59375-4.8477 0-11.043-8.9414-20.004-19.984-20.004h-220.01v-120.02c0-43.977-36.031-80.012-80.012-80.012h-20.004zm16.398 40.004h3.6055c22.504 0 40.004 17.5 40.004 40.004v140.02c0 11.043 8.9414 20.004 20.004 20.004h214.41l-70.016 280.02h-284.39v-275.29l57.891-115.78c0.73437-1.4531 1.3477-3.1328 1.6992-4.8828l0.015625-0.12109 16.781-83.93zm-196.4 240.02h80.012v240.01h-80.012z"/>
</svg>
